<svg xmlns="http://www.w3.org/2000/svg" xmlns:xlink="http://www.w3.org/1999/xlink" width="500" zoomAndPan="magnify" viewBox="0 0 375 374.999991" height="500" preserveAspectRatio="xMidYMid meet" version="1.0"><defs><g/></defs><g fill="rgb(36.859131%, 9.01947%, 92.158508%)" fill-opacity="1"><g transform="translate(72.714843, 252.211309)"><g><path d="M 56.859375 1.703125 C 86.460938 0.851562 99.664062 -17.460938 112.652344 -48.128906 L 134.800781 -46.636719 C 130.753906 -31.304688 126.921875 -12.992188 125.644531 -4.472656 C 131.179688 2.980469 155.03125 2.980469 161.207031 -4.683594 C 163.125 -14.480469 166.742188 -32.371094 170.363281 -46.851562 C 186.121094 -48.339844 199.539062 -51.535156 209.121094 -61.117188 C 210.824219 -62.820312 206.351562 -73.683594 201.242188 -69.421875 C 195.707031 -64.953125 184.632812 -62.820312 172.492188 -62.609375 C 176.539062 -77.515625 185.269531 -109.671875 181.226562 -129.691406 C 176.753906 -151.410156 141.402344 -153.753906 121.808594 -132.246094 C 105.199219 -113.929688 98.597656 -97.320312 86.671875 -70.488281 C 51.75 -72.191406 21.507812 -58.5625 17.460938 -31.941406 C 14.480469 -10.433594 27.898438 2.554688 56.859375 1.703125 Z M 138.632812 -64.3125 C 133.308594 -64.953125 125.21875 -65.378906 119.894531 -66.015625 C 127.558594 -88.375 134.585938 -106.476562 143.746094 -120.105469 C 148.855469 -127.558594 152.902344 -125.003906 152.261719 -119.253906 C 150.558594 -104.136719 144.171875 -83.691406 138.632812 -64.3125 Z M 57.070312 -17.675781 C 49.617188 -17.460938 49.191406 -25.765625 51.109375 -32.371094 C 54.515625 -44.082031 67.292969 -50.683594 79.007812 -50.257812 C 71.554688 -30.238281 65.378906 -18.101562 57.070312 -17.675781 Z M 57.070312 -17.675781 "/></g></g></g><g fill="rgb(36.859131%, 9.01947%, 92.158508%)" fill-opacity="1"><g transform="translate(267.994228, 252.211309)"><g><path d="M 23.851562 2.769531 C 32.15625 2.769531 38.972656 -4.046875 39.824219 -12.351562 C 40.675781 -20.445312 35.136719 -27.257812 25.980469 -27.257812 C 17.460938 -27.257812 10.222656 -20.445312 9.582031 -12.351562 C 9.15625 -4.046875 15.332031 2.769531 23.851562 2.769531 Z M 23.851562 2.769531 "/></g></g></g></svg>